<svg width="251" height="47" viewBox="0 0 251 47" fill="none" xmlns="http://www.w3.org/2000/svg">
<g clip-path="url(#clip0_3_23)">
<path d="M99.1994 9.22379H93.9415V32.9488H108.497V28.3H99.1994V9.22379Z" fill="#4845D2"/>
<path d="M108.999 24.9015C108.999 29.9672 112.398 33.3335 117.527 33.3335C122.625 33.3335 126.024 29.9672 126.024 24.9015C126.024 19.8359 122.625 16.4374 117.527 16.4374C112.398 16.4374 108.999 19.8359 108.999 24.9015ZM113.969 24.8694C113.969 22.4649 115.379 20.8619 117.527 20.8619C119.643 20.8619 121.054 22.4649 121.054 24.8694C121.054 27.3061 119.643 28.9092 117.527 28.9092C115.379 28.9092 113.969 27.3061 113.969 24.8694Z" fill="#4845D2"/>
<path d="M126.818 24.6451C126.818 29.4862 129.96 32.7564 134.416 32.7564C136.564 32.7564 138.424 31.9869 139.354 30.7366V32.9488C139.354 35.161 137.975 36.6357 135.538 36.6357C133.358 36.6357 131.851 35.6098 131.755 33.7824H126.754C127.203 38.1747 130.601 41.1242 135.25 41.1242C140.732 41.1242 144.195 37.5656 144.195 31.9228V16.9184H139.738L139.482 18.5534C138.584 17.239 136.693 16.3734 134.513 16.3734C130.024 16.3734 126.818 19.7397 126.818 24.6451ZM131.819 24.5168C131.819 22.2083 133.358 20.6695 135.314 20.6695C137.59 20.6695 139.257 22.1763 139.257 24.5168C139.257 26.8573 137.622 28.4603 135.346 28.4603C133.39 28.4603 131.819 26.8573 131.819 24.5168Z" fill="#4845D2"/>
<path d="M145.634 24.9015C145.634 29.9672 149.032 33.3335 154.162 33.3335C159.26 33.3335 162.658 29.9672 162.658 24.9015C162.658 19.8359 159.26 16.4374 154.162 16.4374C149.032 16.4374 145.634 19.8359 145.634 24.9015ZM150.603 24.8694C150.603 22.4649 152.014 20.8619 154.162 20.8619C156.278 20.8619 157.688 22.4649 157.688 24.8694C157.688 27.3061 156.278 28.9092 154.162 28.9092C152.014 28.9092 150.603 27.3061 150.603 24.8694Z" fill="#4845D2"/>
<path d="M166.915 14.4176C168.453 14.4176 169.704 13.1673 169.704 11.5963C169.704 10.0253 168.453 8.80701 166.915 8.80701C165.344 8.80701 164.094 10.0253 164.094 11.5963C164.094 13.1673 165.344 14.4176 166.915 14.4176ZM164.414 32.9488H169.384V16.9184H164.414V32.9488Z" fill="#4845D2"/>
<path d="M172.277 40.6433H177.15V31.3457C178.079 32.564 180.196 33.3976 182.408 33.3976C187.184 33.3976 190.07 29.7427 189.942 24.6771C189.813 19.5153 186.832 16.4054 182.376 16.4054C180.099 16.4054 177.952 17.3993 177.053 18.8741L176.797 16.9184H172.277V40.6433ZM177.246 24.9335C177.246 22.5291 178.849 20.926 181.157 20.926C183.497 20.926 184.972 22.5611 184.972 24.9335C184.972 27.3061 183.497 28.9411 181.157 28.9411C178.849 28.9411 177.246 27.3381 177.246 24.9335Z" fill="#4845D2"/>
<path d="M190.468 27.8831C190.596 31.1213 193.161 33.3655 197.201 33.3655C201.081 33.3655 203.774 31.3136 203.774 28.0114C203.774 25.639 202.363 24.0679 199.733 23.4266L196.881 22.7213C195.855 22.4649 195.213 22.2083 195.213 21.3748C195.213 20.5412 195.886 19.9962 196.881 19.9962C198.002 19.9962 198.739 20.7336 198.708 21.8236H203.165C203.036 18.4893 200.504 16.4054 196.976 16.4054C193.418 16.4054 190.757 18.5214 190.757 21.7275C190.757 23.8755 191.943 25.639 195.117 26.4725L197.938 27.2098C198.772 27.4343 199.124 27.819 199.124 28.364C199.124 29.1656 198.387 29.6786 197.136 29.6786C195.693 29.6786 194.924 29.0053 194.924 27.8831H190.468Z" fill="#4845D2"/>
<path d="M211.33 33.3655C213.287 33.3655 215.242 32.4678 216.236 31.1533L216.557 32.9488H221.206V16.9184H216.268V25.2542C216.268 27.6587 215.564 28.9731 213.287 28.9731C211.523 28.9731 210.369 28.1717 210.369 25.1901V16.9184H205.431V26.9854C205.431 30.8007 207.548 33.3655 211.33 33.3655Z" fill="#4845D2"/>
<path d="M229.035 32.9488V24.1962C229.035 21.5031 230.478 20.7336 231.889 20.7336C233.459 20.7336 234.485 21.6955 234.485 23.6832V32.9488H239.359V24.1962C239.359 21.4711 240.769 20.7016 242.18 20.7016C243.75 20.7016 244.809 21.6633 244.809 23.6832V32.9488H249.619V22.4649C249.619 18.81 247.694 16.3734 243.558 16.3734C241.251 16.3734 239.359 17.4954 238.525 19.2267C237.563 17.4954 235.896 16.3734 233.235 16.3734C231.472 16.3734 229.837 17.1748 228.875 18.4573L228.683 16.9184H224.065V32.9488H229.035Z" fill="#4845D2"/>
<path d="M0 23.4854C0 10.5147 10.5148 0 23.4854 0H54.31C67.2806 0 77.7953 10.5147 77.7953 23.4854V46.9707H23.4854C10.5148 46.9707 0 36.456 0 23.4854Z" fill="#3A54AA"/>
<path d="M54.3099 8.80701H23.4854C15.3787 8.80701 8.80701 15.3787 8.80701 23.4854C8.80701 31.592 15.3787 38.1637 23.4854 38.1637H54.3099C62.4166 38.1637 68.9883 31.592 68.9883 23.4854C68.9883 15.3787 62.4166 8.80701 54.3099 8.80701Z" fill="#A5B4FC"/>
<path d="M23.4854 30.8245C27.5387 30.8245 30.8246 27.5387 30.8246 23.4854C30.8246 19.432 27.5387 16.1462 23.4854 16.1462C19.4321 16.1462 16.1462 19.432 16.1462 23.4854C16.1462 27.5387 19.4321 30.8245 23.4854 30.8245Z" fill="black"/>
<path d="M20.5497 22.0175C21.3604 22.0175 22.0176 21.3603 22.0176 20.5497C22.0176 19.739 21.3604 19.0818 20.5497 19.0818C19.7391 19.0818 19.0819 19.739 19.0819 20.5497C19.0819 21.3603 19.7391 22.0175 20.5497 22.0175Z" fill="white"/>
<path d="M55.7778 30.8245C59.8311 30.8245 63.117 27.5387 63.117 23.4854C63.117 19.432 59.8311 16.1462 55.7778 16.1462C51.7245 16.1462 48.4386 19.432 48.4386 23.4854C48.4386 27.5387 51.7245 30.8245 55.7778 30.8245Z" fill="black"/>
<path d="M52.8421 22.0175C53.6528 22.0175 54.31 21.3603 54.31 20.5497C54.31 19.739 53.6528 19.0818 52.8421 19.0818C52.0314 19.0818 51.3743 19.739 51.3743 20.5497C51.3743 21.3603 52.0314 22.0175 52.8421 22.0175Z" fill="white"/>
</g>
<defs>
<clipPath id="clip0_3_23">
<rect width="251" height="46.9707" fill="white"/>
</clipPath>
</defs>
</svg>
